<?xml version="1.0" encoding="iso-8859-1"?>
<!-- Generator: Adobe Illustrator 16.0.4, SVG Export Plug-In . SVG Version: 6.00 Build 0)  -->
<!DOCTYPE svg PUBLIC "-//W3C//DTD SVG 1.1//EN" "http://www.w3.org/Graphics/SVG/1.1/DTD/svg11.dtd">
<svg version="1.1" id="Capa_1" xmlns="http://www.w3.org/2000/svg" xmlns:xlink="http://www.w3.org/1999/xlink" x="0px" y="0px"
	 width="15px" height="13.191px" viewBox="0 0 15 13.191" style="enable-background:new 0 0 15 13.191;" xml:space="preserve">
<path style="fill:#010002;" d="M10.046,9.363l-1.393,3.828l-0.29-0.107l1.354-3.721H10.046z M8.169,9.363l-1.354,3.721l0.29,0.107
	l1.393-3.828H8.169z M6.62,9.363l-1.354,3.721l0.29,0.107l1.393-3.828H6.62z M5.071,9.363l-1.354,3.721l0.29,0.107l1.393-3.828
	H5.071z M11.267,9.363l-1.354,3.721l0.29,0.107l1.393-3.828H11.267z M3.522,9.363l-1.354,3.721l0.29,0.107l1.393-3.828H3.522z
	 M12.187,2.812c-0.351,0-0.684,0.072-0.992,0.189C10.927,1.303,9.469,0,7.695,0C5.731,0,4.141,1.592,4.141,3.555
	c0,0.043,0.012,0.086,0.014,0.131C4.11,3.682,4.067,3.672,4.023,3.672c-1.057,0-1.914,0.855-1.914,1.912
	c0,0.016,0.004,0.027,0.004,0.039C1.962,5.578,1.806,5.547,1.641,5.547C0.734,5.547,0,6.281,0,7.186c0,0.908,0.734,1.25,1.641,1.25
	c0.252,0,2.688,0,5.155,0c0.978,0,1.955,0,2.81,0c1.406,0,2.469,0,2.581,0C13.74,8.436,15,7.178,15,5.625
	C15,4.07,13.74,2.812,12.187,2.812z"/>
<g>
</g>
<g>
</g>
<g>
</g>
<g>
</g>
<g>
</g>
<g>
</g>
<g>
</g>
<g>
</g>
<g>
</g>
<g>
</g>
<g>
</g>
<g>
</g>
<g>
</g>
<g>
</g>
<g>
</g>
</svg>
