<?xml version="1.0" encoding="iso-8859-1"?>
<!-- Generator: Adobe Illustrator 17.1.0, SVG Export Plug-In . SVG Version: 6.00 Build 0)  -->
<!DOCTYPE svg PUBLIC "-//W3C//DTD SVG 1.1//EN" "http://www.w3.org/Graphics/SVG/1.1/DTD/svg11.dtd">
<svg version="1.1" id="Layer_1" xmlns="http://www.w3.org/2000/svg" xmlns:xlink="http://www.w3.org/1999/xlink" x="0px" y="0px"
	 viewBox="0 0 64 64" style="enable-background:new 0 0 64 64;" xml:space="preserve">
<polygon points="42,60 40.583,29 39.042,29 37.833,60 "/>
<path d="M40.809,20c0.744,0,1.348-0.791,1.348-1.535L40.839,3.629C40.839,2.885,40.834,2,40.09,2h-0.18
	c-0.744,0-0.809,0.885-0.809,1.629l-1.258,14.836c0,0.744,0.603,1.535,1.348,1.535H40.809z"/>
<path d="M58.537,35.92l0.097-0.151c0.401-0.627-0.31-1.158-0.938-1.558l-11.827-9.045c-0.627-0.401-1.619-0.318-2.019,0.31
	l-0.87,1.363c-0.401,0.627-0.059,1.561,0.569,1.962l13.213,6.875C57.388,36.075,58.136,36.547,58.537,35.92z"/>
<path d="M21.924,35.768l0.097,0.151c0.401,0.627,1.148,0.155,1.776-0.246l13.213-6.875c0.627-0.401,0.969-1.335,0.568-1.962
	l-0.87-1.363c-0.401-0.627-1.392-0.71-2.019-0.31L22.861,34.21C22.234,34.611,21.523,35.141,21.924,35.768z"/>
<circle cx="39.917" cy="24.25" r="2.073"/>
<path d="M5.899,10.397c-0.263-0.083-0.543,0.064-0.627,0.328c-0.082,0.264,0.064,0.544,0.328,0.627
	c0.396,0.124,6.246,1.925,11.681,1.925c3.478,0,6.785-0.738,8.384-3.124c1.482-2.211,1.118-3.73,0.77-4.438
	c-0.483-0.983-1.516-1.642-2.692-1.719c-1.231-0.074-2.363,0.472-3.033,1.477c-0.153,0.229-0.091,0.54,0.139,0.693
	c0.229,0.152,0.539,0.092,0.693-0.139c0.47-0.704,1.263-1.097,2.136-1.033c0.821,0.054,1.534,0.499,1.86,1.162
	c0.438,0.889,0.188,2.111-0.702,3.44C21.148,15.095,6.052,10.445,5.899,10.397z"/>
<path d="M5.598,14.653c0.437,0.14,7.115,2.242,13.364,2.242c3.635,0,7.125-0.712,9.157-2.933c0.187-0.204,0.172-0.521-0.031-0.707
	c-0.205-0.187-0.521-0.172-0.707,0.031C22.283,18.861,6.065,13.753,5.902,13.7c-0.262-0.081-0.544,0.062-0.629,0.324
	C5.189,14.287,5.335,14.568,5.598,14.653z"/>
<path d="M5.773,18.419c0.183-0.004,18.028-0.762,20.14,6.188c0.065,0.216,0.264,0.354,0.479,0.354c0.048,0,0.097-0.007,0.146-0.021
	c0.264-0.08,0.413-0.359,0.333-0.624C24.534,16.63,6.495,17.38,5.727,17.421c-0.275,0.013-0.489,0.246-0.476,0.522
	C5.263,18.219,5.491,18.459,5.773,18.419z"/>
<path d="M20.838,24.98c0.168,0.44,0.128,0.892-0.119,1.341c-0.56,1.017-1.846,1.308-2.771,1.074
	c-0.436-0.112-1.449-0.521-1.449-1.896c0-0.276-0.224-0.5-0.5-0.5s-0.5,0.224-0.5,0.5c0,1.417,0.843,2.515,2.2,2.863
	c0.282,0.073,0.584,0.11,0.893,0.11c1.138,0,2.364-0.511,3.002-1.67c0.391-0.709,0.452-1.463,0.179-2.181
	c-0.399-1.045-1.486-1.945-2.981-2.47c-4.158-1.46-12.681-1.478-13.041-1.478c-0.276,0-0.5,0.224-0.5,0.5s0.224,0.5,0.5,0.5
	c0.087,0,8.713,0.018,12.709,1.421C19.659,23.518,20.549,24.222,20.838,24.98z"/>
</svg>
