<?xml version="1.0" encoding="iso-8859-1"?>
<!-- Generator: Adobe Illustrator 18.0.0, SVG Export Plug-In . SVG Version: 6.00 Build 0)  -->
<!DOCTYPE svg PUBLIC "-//W3C//DTD SVG 1.1//EN" "http://www.w3.org/Graphics/SVG/1.1/DTD/svg11.dtd">
<svg version="1.1" id="Capa_1" xmlns="http://www.w3.org/2000/svg" xmlns:xlink="http://www.w3.org/1999/xlink" x="0px" y="0px"
	 viewBox="0 0 95.436 83.11" style="enable-background:new 0 0 95.436 83.11;" xml:space="preserve">
<g>
	<path d="M60.468,41.72c-1.453,0-2.578,1.17-2.578,2.62v29.44c0,1.45,1.125,2.62,2.578,2.62s2.625-1.17,2.625-2.62V44.34
		C63.093,42.89,61.921,41.72,60.468,41.72z"/>
	<path d="M49.828,48.47c-1.453,0-2.578,1.12-2.578,2.58v29.48c0,1.45,1.125,2.58,2.578,2.58s2.578-1.13,2.578-2.58V51.05
		C52.406,49.59,51.281,48.47,49.828,48.47z"/>
	<path d="M39.187,41.72c-1.453,0-2.625,1.17-2.625,2.62v29.44c0,1.45,1.172,2.62,2.625,2.62s2.578-1.17,2.578-2.62V44.34
		C41.765,42.89,40.64,41.72,39.187,41.72z"/>
	<path d="M92.53,31.26c-1.922-3.51-4.5-6.32-7.781-8.34c-0.797-5.95-3.191-11.01-7.172-15.19C72.887,2.81,66.515,0,59.906,0
		c-5.297,0-10.125,1.59-14.391,4.78c-4.265,3.19-7.312,7.36-9.14,12.47c-0.985-0.14-1.782-0.19-2.297-0.19
		c-3.656,0-6.947,1.16-9.844,3.47c-2.868,2.29-4.828,5.2-5.906,8.81c-0.187-0.04-0.516-0.09-1.031-0.09
		c-4.735,0-8.813,1.78-12.234,5.39C1.687,38.2,0,42.47,0,47.48c0,4.46,1.377,8.43,4.125,11.91c2.69,3.41,6.197,5.38,10.547,6.14
		c0.761,0.13,1.547,0.28,2.344,0.28h15.327v-5.25H17.016c-0.657,0-1.125-0.05-1.454-0.09c-2.953-0.42-5.404-1.87-7.406-4.36
		c-1.983-2.48-2.953-5.35-2.953-8.63c0-3.61,1.16-6.71,3.516-9.23c2.378-2.54,5.25-3.8,8.578-3.8c1.875,0,3.75,0.52,5.672,1.55
		c-0.047-0.33-0.094-0.85-0.094-1.55c0-3.33,1.077-6.19,3.234-8.53c2.202-2.39,4.828-3.56,7.969-3.56c2.156,0,4.125,0.61,5.953,1.83
		c0.609-5.39,2.801-9.91,6.562-13.55c3.786-3.67,8.203-5.48,13.313-5.48c5.39,0,10.019,2.07,13.921,6.18
		c3.879,4.09,5.86,9.05,5.953,14.86c3.141,1.31,5.615,3.48,7.547,6.47c1.911,2.96,2.906,6.33,2.906,10.03
		c0,4.55-1.301,8.5-3.984,11.86c-2.66,3.34-5.998,5.31-10.031,5.91c-0.374,0.05-1.078,0.09-2.109,0.09h-6.703v5.25h6.703
		c1.312,0,2.343-0.09,3.093-0.28c5.203-0.75,9.583-3.31,13.125-7.78c3.442-4.34,5.109-9.38,5.109-15.05
		C95.436,38.62,94.452,34.78,92.53,31.26z"/>
</g>
<g>
</g>
<g>
</g>
<g>
</g>
<g>
</g>
<g>
</g>
<g>
</g>
<g>
</g>
<g>
</g>
<g>
</g>
<g>
</g>
<g>
</g>
<g>
</g>
<g>
</g>
<g>
</g>
<g>
</g>
</svg>
