<?xml version="1.0" encoding="iso-8859-1"?>
<!-- Generator: Adobe Illustrator 16.0.0, SVG Export Plug-In . SVG Version: 6.00 Build 0)  -->
<!DOCTYPE svg PUBLIC "-//W3C//DTD SVG 1.1//EN" "http://www.w3.org/Graphics/SVG/1.1/DTD/svg11.dtd">
<svg version="1.1" id="Layer_1" xmlns="http://www.w3.org/2000/svg" xmlns:xlink="http://www.w3.org/1999/xlink" x="0px" y="0px"
	 width="36px" height="36px" viewBox="0 0 36 36" style="enable-background:new 0 0 36 36;" xml:space="preserve">
<g>
	<path style="fill:#010101;" d="M8.473,29.048c-0.486,1.009-0.064,2.221,0.943,2.708s2.221,0.065,2.707-0.943
		c0.488-1.009-0.117-4.414-0.117-4.414S8.959,28.04,8.473,29.048z"/>
	<path style="fill:#010101;" d="M15.094,29.048c-0.486,1.009-0.064,2.221,0.943,2.708s2.221,0.065,2.709-0.943
		c0.488-1.009-0.119-4.414-0.119-4.414S15.582,28.04,15.094,29.048z"/>
	<path style="fill:#010101;" d="M21.57,29.048c-0.486,1.009-0.064,2.221,0.943,2.708s2.221,0.065,2.709-0.943
		c0.486-1.009-0.119-4.414-0.119-4.414S22.059,28.04,21.57,29.048z"/>
	<path style="fill:#010101;" d="M27.895,9.711c-1.424-1.887-3.637-2.998-6.02-2.998c-2.135,0-4.148,0.921-5.559,2.454
		c-2.621,0.298-4.832,1.94-5.924,4.223c-0.047-0.001-0.094-0.007-0.143-0.007c-2.969,0-5.377,2.408-5.377,5.379
		c0,2.97,1.408,6.139,5.377,6.139l13.137,0.074c2.068,0,3.896-1.015,5.025-2.57c2.979-0.555,5.242-3.169,5.242-6.308
		C33.654,12.8,31.117,10.045,27.895,9.711z M29.516,19.73c0.051-0.316,0.084-0.638,0.084-0.968c0-3.398-2.729-6.159-6.115-6.21
		c-0.949-1.464-2.395-2.576-4.096-3.101c0.758-0.393,1.607-0.612,2.486-0.612c1.846,0,3.545,0.927,4.551,2.479l0.309,0.476
		l0.566,0.008c2.332,0.037,4.23,1.963,4.23,4.295C31.531,17.627,30.725,18.969,29.516,19.73z"/>
</g>
</svg>
