<?xml version="1.0" encoding="utf-8"?>
<!-- Generator: Adobe Illustrator 17.0.0, SVG Export Plug-In . SVG Version: 6.00 Build 0)  -->
<!DOCTYPE svg PUBLIC "-//W3C//DTD SVG 1.1//EN" "http://www.w3.org/Graphics/SVG/1.1/DTD/svg11.dtd">
<svg version="1.1" id="Capa_1" xmlns="http://www.w3.org/2000/svg" xmlns:xlink="http://www.w3.org/1999/xlink" x="0px" y="0px"
	 width="64px" height="64px" viewBox="0 0 64 64" enable-background="new 0 0 64 64" xml:space="preserve">
<g>
	<path d="M25.598,18.262c0.573-0.123,1.167-0.192,1.776-0.192s1.203,0.068,1.776,0.192V11.57l6.164-6.164l-2.511-2.511L29.15,6.547
		V2.615h-3.552v3.932l-3.652-3.652l-2.511,2.511l6.164,6.164V18.262z"/>
	<path d="M37.214,28.287v-3.552h-1.591c0.123,0.573,0.192,1.167,0.192,1.776s-0.068,1.203-0.192,1.776H37.214z"/>
	<path d="M29.15,50.406v-3.932l2.661,2.661c-0.025-0.372-0.047-0.746-0.047-1.126c0-1.284,0.15-2.451,0.42-3.524l-3.034-3.034
		v-6.692c-0.573,0.123-1.167,0.192-1.776,0.192s-1.203-0.068-1.776-0.192v6.692l-6.164,6.164l2.511,2.511l3.652-3.652v3.932H29.15z"
		/>
	<path d="M3.758,31.939l2.511,2.511l6.164-6.164h6.692c-0.123-0.573-0.192-1.167-0.192-1.776s0.068-1.203,0.192-1.776h-6.692
		l-6.164-6.164l-2.511,2.511l3.652,3.652H3.478v3.552H7.41L3.758,31.939z"/>
	<path d="M6.794,17.295l8.717-0.039l4.759,4.716c0.646-1.008,1.497-1.87,2.499-2.525l-4.757-4.714l-0.04-8.717L14.42,6.032
		l0.023,5.165l-2.793-2.767l-2.5,2.523l2.793,2.767l-5.165,0.023L6.794,17.295z"/>
	<path d="M34.478,21.971l2.736-2.711v-7.076c0-2.73,1.256-4.605,3.111-5.529l0.003-0.622l-3.552-0.016l-0.04,8.717l-4.757,4.714
		C32.981,20.102,33.832,20.964,34.478,21.971z"/>
	<path d="M31.979,33.575l4.411,4.371c0.269-0.23,0.536-0.463,0.823-0.68v-3.505l-2.736-2.711
		C33.832,32.058,32.981,32.92,31.979,33.575z"/>
	<path d="M15.511,35.766l-8.717-0.039l-0.016,3.552l5.165,0.023L9.15,42.069l2.5,2.523l2.793-2.767l-0.023,5.165l3.552,0.016
		l0.04-8.717l4.757-4.714c-1.001-0.655-1.853-1.517-2.499-2.525L15.511,35.766z"/>
	<circle cx="27.374" cy="26.511" r="6.44"/>
	<path d="M43.992,15.621v1.656v5.78v5.569h3.686h0.01v-0.34v-3.552v-0.35v-5.023v-2.068v-1.673c0-0.852-0.111-1.452-0.28-1.88
		c-0.412-1.046-1.175-1.051-1.568-1.051c-0.39,0-1.149,0.005-1.562,1.037C44.106,14.156,43.992,14.76,43.992,15.621z"/>
	<path d="M39.512,13.342v3.915v7.478v3.552v7.478v2.915c-1.046,0.662-1.967,1.494-2.763,2.434c-1.278,1.509-2.185,3.33-2.596,5.34
		c-0.16,0.782-0.268,1.583-0.268,2.412c0,0.057,0.008,0.112,0.008,0.168c0.091,6.581,5.447,11.889,12.049,11.889
		c0.841,0,1.661-0.087,2.453-0.251C53.878,59.54,58,54.685,58,48.867c0-4.429-2.395-8.29-5.954-10.386V13.342
		c0-2.981-2.083-5.47-4.871-6.105c-0.449-0.102-0.915-0.161-1.396-0.161c-2.352,0-4.398,1.297-5.47,3.214
		C39.803,11.193,39.512,12.233,39.512,13.342z M45.84,11.69c2.171,0,2.848,1.76,2.848,3.932v3.159v4.604v1.35v3.552v0.34v1.01v4.604
		v7.989c2.984,0.764,4.562,3.347,4.776,5.918c0.026,0.197,0.043,0.396,0.043,0.598c0,4.178-3.387,7.565-7.565,7.565
		s-7.564-3.387-7.564-7.565c0-0.203,0.018-0.403,0.045-0.601c0.032-0.396,0.093-0.779,0.185-1.148
		c0.298-1.197,0.88-2.246,1.706-3.06c0.358-0.353,0.769-0.647,1.205-0.909c0.458-0.275,0.943-0.512,1.473-0.674v-2.868v-0.186
		v-3.552v-6.784v-0.338v-4.569v-6.784v-1.652c0-0.693,0.08-1.334,0.244-1.899c0.074-0.256,0.167-0.493,0.283-0.71
		c0.247-0.461,0.591-0.825,1.061-1.051C44.931,11.792,45.342,11.69,45.84,11.69z"/>
	<path d="M49.675,53.582c1.461-1.673,2.144-3.74,1.953-5.785c-0.129-1.385-2.787-1.395-2.657,0c0.16,1.711-0.369,3.293-1.59,4.691
		C46.384,53.629,48.69,54.71,49.675,53.582z"/>
</g>
</svg>
