<?xml version="1.0" encoding="utf-8"?>
<!-- Generator: Adobe Illustrator 17.0.0, SVG Export Plug-In . SVG Version: 6.00 Build 0)  -->
<!DOCTYPE svg PUBLIC "-//W3C//DTD SVG 1.1//EN" "http://www.w3.org/Graphics/SVG/1.1/DTD/svg11.dtd">
<svg version="1.1" id="Layer_1" xmlns="http://www.w3.org/2000/svg" xmlns:xlink="http://www.w3.org/1999/xlink" x="0px" y="0px"
	 width="792px" height="612px" viewBox="0 0 792 612" enable-background="new 0 0 792 612" xml:space="preserve">
<path d="M281.815,369.447c2.19-1.473,2.773-4.456,1.291-6.636c-1.482-2.19-4.447-2.773-6.636-1.301
	c-9.562,6.445-14.411,13.674-14.411,21.477c0,28.267,60.712,43.519,117.839,43.519s117.829-15.252,117.829-43.519
	c0-7.201-4.179-13.952-12.412-20.062c-2.113-1.568-5.106-1.119-6.684,0.995c-1.578,2.123-1.128,5.116,0.995,6.684
	c3.902,2.897,8.549,7.392,8.549,12.383c0,16.065-44.466,33.956-108.267,33.956c-63.811,0-108.276-17.891-108.276-33.956
	C271.631,377.47,277.168,372.574,281.815,369.447z"/>
<path d="M530.268,343.992c-2.448-0.995-5.231,0.182-6.235,2.611c-0.995,2.448,0.172,5.24,2.62,6.235
	c27.377,11.179,42.448,24.776,42.448,38.288c0,29.797-76.031,61.697-189.204,61.697c-113.182,0-189.213-31.9-189.213-61.697
	c0-13.942,16.008-27.894,45.068-39.264c2.458-0.966,3.672-3.739,2.716-6.196c-0.966-2.467-3.758-3.672-6.197-2.706
	c-33.469,13.101-51.15,29.758-51.15,48.176c0,39.962,87.306,71.26,198.776,71.26c111.461,0,198.766-31.298,198.766-71.26
	C578.674,373.215,561.939,356.911,530.268,343.992z"/>
<path fill="#1D1D1B" d="M303.316,281.255c0-42.293,76.578-176.976,76.578-176.976s76.578,134.683,76.578,176.976
	s-34.285,76.578-76.578,76.578S303.316,323.547,303.316,281.255z"/>
</svg>
